{"title":"Brave.2012.TS.READNFO.XviD-INSPiRAL","uid":7504020,"size":826071852,"categoryP":"video","categoryS":"movies","magnet":"?xt=urn:btih:0ac967d2f756174c2a1a65ccfbae52ebfd1a9542&amp;dn=Brave.2012.TS.READNFO.XviD-INSPiRAL&amp;tr=udp%3A%2F%2Ftracker.openbittorrent.com%3A80&amp;tr=udp%3A%2F%2Fopen.demonii.com%3A1337&amp;tr=udp%3A%2F%2Ftracker.coppersurfer.tk%3A6969&amp;tr=udp%3A%2F%2Fexodus.desync.com%3A6969","seeders":1,"leechers":0,"uploader":"maximersk","files":4,"time":1344108784,"description":"Brave.2012.TS.READNFO.XviD-INSPiRAL\n\n\n\n\nDetermined to make her own path in life, Princess Merida defies a custom that brings chaos to her kingdom. Granted one wish, Merida must rely on her bravery and her archery skills to undo a beastly curse. \n\nSOURCES:\n\nVIDEO - seen-cm8\nAUDIO - seen-cm8\nSUBS - None Add\n\nSTATS:\n\nVideo\nID : 0\nFormat : MPEG-4 Visual\nFormat profile : Advanced Simple@L5\nFormat settings, BVOP : 2\nFormat settings, QPel : No\nFormat settings, GMC : No warppoints\nFormat settings, Matrix : Default (MPEG)\nMuxing mode : Packed bitstream\nCodec ID : XVID\nCodec ID/Hint : XviD\nDuration : 1h 24mn\nBit rate : 1 146 Kbps\nWidth : 720 pixels\nHeight : 304 pixels\nDisplay aspect ratio : 2.35:1\nFrame rate : 24.000 fps\nColor space : YUV\nChroma subsampling : 4:2:0\nBit depth : 8 bits\nScan type : Progressive\nCompression mode : Lossy\nBits/(Pixel*Frame) : 0.218\nStream size : 694 MiB (89%)\nWriting library : XviD 64\n\nAudio\nID : 1\nFormat : MPEG Audio\nFormat version : Version 1\nFormat profile : Layer 3\nMode : Joint stereo\nMode extension : MS Stereo\nCodec ID : 55\nCodec ID/Hint : MP3\nDuration : 1h 24mn\nBit rate mode : Constant\nBit rate : 128 Kbps\nChannel(s) : 2 channels\nSampling rate : 44.1 KHz\nCompression mode : Lossy\nStream size : 77.5 MiB (10%)\nAlignment : Split accross interleaves\nInterleave, duration : 42 ms (1.00 video frame)\nInterleave, preload duration : 500 ms\n\n\n\n\nNOTES:\n\nOk yes this is a straight re-encode of seen-cm8 ....we won't lie\nTook the video cut into two and removed the black borders and resized too match the rest of the video.\nThen cleaned the video changing the colouring,brightness,contrast etc....\nWill be honest and say its smoother probably then there but not by much ....and thats because we needed too use\nthe smoother option.\nWhat the screenies on their release didn't show was how it looks in a frame by frame view in vdub.....the video\nis full on noise now and again and had to be fixed.\nSEE SCREENS BELOW !!!\n\nOnce done onto to the audio ...nice and powerful compared too the other line we had,but still had some noise/static\nto it and also oos in parts,only slightly though.\nSo first off cleaned audio changing the EQ bands and lowering the bands that contained the noise ...then we resyncd it and\nthen remuxed too our encode.\n","torrent":{"xt":"urn:btih:0ac967d2f756174c2a1a65ccfbae52ebfd1a9542","amp;dn":"Brave.2012.TS.READNFO.XviD-INSPiRAL","amp;tr":["udp%3A%2F%2Ftracker.openbittorrent.com%3A80","udp%3A%2F%2Fopen.demonii.com%3A1337","udp%3A%2F%2Ftracker.coppersurfer.tk%3A6969","udp%3A%2F%2Fexodus.desync.com%3A6969"],"infoHash":"0ac967d2f756174c2a1a65ccfbae52ebfd1a9542","infoHashBuffer":{"type":"Buffer","data":[10,201,103,210,247,86,23,76,42,26,101,204,251,174,82,235,253,26,149,66]},"announce":[],"urlList":[]}}